<mxfile host="65bd71144e">
    <diagram id="VxAjxtcHLlGStrnzNrc-" name="Page-1">
        <mxGraphModel dx="2056" dy="2051" grid="1" gridSize="10" guides="1" tooltips="1" connect="1" arrows="1" fold="1" page="1" pageScale="1" pageWidth="850" pageHeight="1100" math="0" shadow="0">
            <root>
                <mxCell id="0"/>
                <mxCell id="1" parent="0"/>
                <mxCell id="8" value="" style="rounded=1;whiteSpace=wrap;html=1;" vertex="1" parent="1">
                    <mxGeometry x="26.89999999999999" y="-180" width="475" height="400" as="geometry"/>
                </mxCell>
                <mxCell id="10" value="" style="shape=link;html=1;exitX=0;exitY=0.25;exitDx=0;exitDy=0;entryX=1;entryY=0.25;entryDx=0;entryDy=0;" edge="1" parent="1" source="8" target="8">
                    <mxGeometry width="100" relative="1" as="geometry">
                        <mxPoint x="-23.10000000000001" y="-30" as="sourcePoint"/>
                        <mxPoint x="76.89999999999999" y="-30" as="targetPoint"/>
                    </mxGeometry>
                </mxCell>
                <mxCell id="11" value="" style="shape=link;html=1;entryX=0.71;entryY=0.996;entryDx=0;entryDy=0;entryPerimeter=0;exitX=0.703;exitY=0;exitDx=0;exitDy=0;exitPerimeter=0;" edge="1" parent="1" source="8" target="8">
                    <mxGeometry width="100" relative="1" as="geometry">
                        <mxPoint x="86.89999999999999" y="-70" as="sourcePoint"/>
                        <mxPoint x="136.89999999999998" y="30" as="targetPoint"/>
                    </mxGeometry>
                </mxCell>
                <mxCell id="12" value="Class: Main" style="text;html=1;strokeColor=none;fillColor=none;align=center;verticalAlign=middle;whiteSpace=wrap;rounded=0;" vertex="1" parent="1">
                    <mxGeometry x="126.89999999999999" y="-160" width="100" height="30" as="geometry"/>
                </mxCell>
                <mxCell id="13" value="DeckBuilder" style="text;html=1;strokeColor=none;fillColor=none;align=center;verticalAlign=middle;whiteSpace=wrap;rounded=0;" vertex="1" parent="1">
                    <mxGeometry x="386.90000000000003" y="-40" width="60" height="30" as="geometry"/>
                </mxCell>
                <mxCell id="14" value="Great the user" style="text;html=1;strokeColor=none;fillColor=none;align=center;verticalAlign=middle;whiteSpace=wrap;rounded=0;" vertex="1" parent="1">
                    <mxGeometry x="85.95" y="-50" width="99.05" height="30" as="geometry"/>
                </mxCell>
                <mxCell id="15" value="Collaberator" style="text;html=1;strokeColor=none;fillColor=none;align=center;verticalAlign=middle;whiteSpace=wrap;rounded=0;" vertex="1" parent="1">
                    <mxGeometry x="386.90000000000003" y="-110" width="60" height="30" as="geometry"/>
                </mxCell>
                <mxCell id="16" value="" style="shape=link;html=1;exitX=-0.002;exitY=0.13;exitDx=0;exitDy=0;exitPerimeter=0;entryX=1;entryY=0.115;entryDx=0;entryDy=0;entryPerimeter=0;" edge="1" parent="1" source="8" target="8">
                    <mxGeometry width="100" relative="1" as="geometry">
                        <mxPoint x="106.89999999999999" y="-150" as="sourcePoint"/>
                        <mxPoint x="206.89999999999998" y="-150" as="targetPoint"/>
                    </mxGeometry>
                </mxCell>
                <mxCell id="17" value="Responsiblilties" style="text;html=1;strokeColor=none;fillColor=none;align=center;verticalAlign=middle;whiteSpace=wrap;rounded=0;" vertex="1" parent="1">
                    <mxGeometry x="136.89999999999998" y="-110" width="60" height="30" as="geometry"/>
                </mxCell>
                <mxCell id="18" value="" style="rounded=1;whiteSpace=wrap;html=1;" vertex="1" parent="1">
                    <mxGeometry x="-179.04999999999998" y="360" width="475" height="400" as="geometry"/>
                </mxCell>
                <mxCell id="19" value="" style="shape=link;html=1;exitX=0;exitY=0.25;exitDx=0;exitDy=0;entryX=1;entryY=0.25;entryDx=0;entryDy=0;" edge="1" parent="1" source="18" target="18">
                    <mxGeometry width="100" relative="1" as="geometry">
                        <mxPoint x="-224.04999999999998" y="500" as="sourcePoint"/>
                        <mxPoint x="-124.04999999999998" y="500" as="targetPoint"/>
                    </mxGeometry>
                </mxCell>
                <mxCell id="20" value="" style="shape=link;html=1;entryX=0.71;entryY=0.996;entryDx=0;entryDy=0;entryPerimeter=0;exitX=0.703;exitY=0;exitDx=0;exitDy=0;exitPerimeter=0;" edge="1" parent="1" source="18" target="18">
                    <mxGeometry width="100" relative="1" as="geometry">
                        <mxPoint x="-114.04999999999998" y="460" as="sourcePoint"/>
                        <mxPoint x="-64.04999999999998" y="560" as="targetPoint"/>
                    </mxGeometry>
                </mxCell>
                <mxCell id="21" value="Class: JsonScribe" style="text;html=1;strokeColor=none;fillColor=none;align=center;verticalAlign=middle;whiteSpace=wrap;rounded=0;" vertex="1" parent="1">
                    <mxGeometry x="-74.04999999999998" y="370" width="100" height="30" as="geometry"/>
                </mxCell>
                <mxCell id="23" value="Serialize the decks into Json for easy storage" style="text;html=1;strokeColor=none;fillColor=none;align=center;verticalAlign=middle;whiteSpace=wrap;rounded=0;" vertex="1" parent="1">
                    <mxGeometry x="-100" y="500" width="200" height="30" as="geometry"/>
                </mxCell>
                <mxCell id="24" value="Collaberator" style="text;html=1;strokeColor=none;fillColor=none;align=center;verticalAlign=middle;whiteSpace=wrap;rounded=0;" vertex="1" parent="1">
                    <mxGeometry x="185.95000000000002" y="420" width="60" height="30" as="geometry"/>
                </mxCell>
                <mxCell id="25" value="" style="shape=link;html=1;exitX=-0.002;exitY=0.13;exitDx=0;exitDy=0;exitPerimeter=0;entryX=1;entryY=0.115;entryDx=0;entryDy=0;entryPerimeter=0;" edge="1" parent="1" source="18" target="18">
                    <mxGeometry width="100" relative="1" as="geometry">
                        <mxPoint x="-94.04999999999998" y="380" as="sourcePoint"/>
                        <mxPoint x="5.950000000000017" y="380" as="targetPoint"/>
                    </mxGeometry>
                </mxCell>
                <mxCell id="26" value="Responsiblilties" style="text;html=1;strokeColor=none;fillColor=none;align=center;verticalAlign=middle;whiteSpace=wrap;rounded=0;" vertex="1" parent="1">
                    <mxGeometry x="-64.04999999999998" y="420" width="60" height="30" as="geometry"/>
                </mxCell>
                <mxCell id="27" value="" style="rounded=1;whiteSpace=wrap;html=1;" vertex="1" parent="1">
                    <mxGeometry x="480.95" y="360" width="475" height="400" as="geometry"/>
                </mxCell>
                <mxCell id="28" value="" style="shape=link;html=1;exitX=0;exitY=0.25;exitDx=0;exitDy=0;entryX=1;entryY=0.25;entryDx=0;entryDy=0;" edge="1" parent="1" source="27" target="27">
                    <mxGeometry width="100" relative="1" as="geometry">
                        <mxPoint x="435.95" y="500" as="sourcePoint"/>
                        <mxPoint x="535.95" y="500" as="targetPoint"/>
                    </mxGeometry>
                </mxCell>
                <mxCell id="29" value="" style="shape=link;html=1;entryX=0.71;entryY=0.996;entryDx=0;entryDy=0;entryPerimeter=0;exitX=0.703;exitY=0;exitDx=0;exitDy=0;exitPerimeter=0;" edge="1" parent="1" source="27" target="27">
                    <mxGeometry width="100" relative="1" as="geometry">
                        <mxPoint x="545.95" y="460" as="sourcePoint"/>
                        <mxPoint x="595.95" y="560" as="targetPoint"/>
                    </mxGeometry>
                </mxCell>
                <mxCell id="30" value="Class: DeckBuilder" style="text;html=1;strokeColor=none;fillColor=none;align=center;verticalAlign=middle;whiteSpace=wrap;rounded=0;" vertex="1" parent="1">
                    <mxGeometry x="585.95" y="370" width="144.05" height="30" as="geometry"/>
                </mxCell>
                <mxCell id="31" value="Text" style="text;html=1;strokeColor=none;fillColor=none;align=center;verticalAlign=middle;whiteSpace=wrap;rounded=0;" vertex="1" parent="1">
                    <mxGeometry x="845.95" y="490" width="60" height="30" as="geometry"/>
                </mxCell>
                <mxCell id="32" value="Text" style="text;html=1;strokeColor=none;fillColor=none;align=center;verticalAlign=middle;whiteSpace=wrap;rounded=0;" vertex="1" parent="1">
                    <mxGeometry x="555.95" y="500" width="60" height="30" as="geometry"/>
                </mxCell>
                <mxCell id="33" value="Collaberator" style="text;html=1;strokeColor=none;fillColor=none;align=center;verticalAlign=middle;whiteSpace=wrap;rounded=0;" vertex="1" parent="1">
                    <mxGeometry x="845.95" y="420" width="60" height="30" as="geometry"/>
                </mxCell>
                <mxCell id="34" value="" style="shape=link;html=1;exitX=-0.002;exitY=0.13;exitDx=0;exitDy=0;exitPerimeter=0;entryX=1;entryY=0.115;entryDx=0;entryDy=0;entryPerimeter=0;" edge="1" parent="1" source="27" target="27">
                    <mxGeometry width="100" relative="1" as="geometry">
                        <mxPoint x="565.95" y="380" as="sourcePoint"/>
                        <mxPoint x="665.95" y="380" as="targetPoint"/>
                    </mxGeometry>
                </mxCell>
                <mxCell id="35" value="Responsiblilties" style="text;html=1;strokeColor=none;fillColor=none;align=center;verticalAlign=middle;whiteSpace=wrap;rounded=0;" vertex="1" parent="1">
                    <mxGeometry x="595.95" y="420" width="60" height="30" as="geometry"/>
                </mxCell>
                <mxCell id="46" value="Run the application" style="text;html=1;strokeColor=none;fillColor=none;align=center;verticalAlign=middle;whiteSpace=wrap;rounded=0;" vertex="1" parent="1">
                    <mxGeometry x="80" y="-10" width="130" height="40" as="geometry"/>
                </mxCell>
                <mxCell id="49" value="" style="rounded=0;whiteSpace=wrap;html=1;" vertex="1" parent="1">
                    <mxGeometry x="636" y="900" width="324" height="180" as="geometry"/>
                </mxCell>
                <mxCell id="50" value="" style="shape=link;html=1;exitX=0;exitY=0.25;exitDx=0;exitDy=0;" edge="1" parent="1" source="49">
                    <mxGeometry width="100" relative="1" as="geometry">
                        <mxPoint x="700" y="970" as="sourcePoint"/>
                        <mxPoint x="960" y="950" as="targetPoint"/>
                    </mxGeometry>
                </mxCell>
                <mxCell id="51" value="Record: Card" style="text;html=1;strokeColor=none;fillColor=none;align=center;verticalAlign=middle;whiteSpace=wrap;rounded=0;" vertex="1" parent="1">
                    <mxGeometry x="750" y="900" width="130" height="30" as="geometry"/>
                </mxCell>
                <mxCell id="53" value="" style="shape=flexArrow;endArrow=classic;html=1;entryX=0.278;entryY=-0.01;entryDx=0;entryDy=0;entryPerimeter=0;exitX=0.976;exitY=0.94;exitDx=0;exitDy=0;exitPerimeter=0;" edge="1" parent="1" source="8" target="27">
                    <mxGeometry width="50" height="50" relative="1" as="geometry">
                        <mxPoint x="477.58690476190486" y="220" as="sourcePoint"/>
                        <mxPoint x="630" y="160" as="targetPoint"/>
                    </mxGeometry>
                </mxCell>
                <mxCell id="55" value="" style="shape=flexArrow;endArrow=classic;html=1;exitX=0.402;exitY=1.005;exitDx=0;exitDy=0;exitPerimeter=0;entryX=0.25;entryY=0;entryDx=0;entryDy=0;" edge="1" parent="1" source="27" target="49">
                    <mxGeometry width="50" height="50" relative="1" as="geometry">
                        <mxPoint x="680" y="850" as="sourcePoint"/>
                        <mxPoint x="730" y="800" as="targetPoint"/>
                    </mxGeometry>
                </mxCell>
                <mxCell id="57" value="" style="shape=flexArrow;endArrow=classic;html=1;" edge="1" parent="1" source="27" target="18">
                    <mxGeometry width="50" height="50" relative="1" as="geometry">
                        <mxPoint x="380" y="570" as="sourcePoint"/>
                        <mxPoint x="430" y="520" as="targetPoint"/>
                    </mxGeometry>
                </mxCell>
                <mxCell id="58" value="End the application" style="text;html=1;strokeColor=none;fillColor=none;align=center;verticalAlign=middle;whiteSpace=wrap;rounded=0;" vertex="1" parent="1">
                    <mxGeometry x="85.95" y="50" width="130" height="40" as="geometry"/>
                </mxCell>
            </root>
        </mxGraphModel>
    </diagram>
</mxfile>